<svg xmlns="http://www.w3.org/2000/svg" width="512" height="512" viewBox="0 0 512 512" version="1.1">
	<path d="M 295.500 30.376 C 289.137 32.425, 285.637 34.566, 279.539 40.138 C 264.459 53.921, 253.899 79.055, 250.834 108.466 L 249.656 119.763 245.678 116.882 C 241.923 114.162, 241.133 113.999, 231.600 113.987 C 219.917 113.972, 206.161 111.414, 197.842 107.710 C 194.730 106.325, 187.172 101.968, 181.045 98.029 C 166.847 88.899, 157.078 83.672, 149.485 81.142 C 141.876 78.606, 126.992 76.591, 122.328 77.466 L 118.765 78.135 128.633 83.841 C 147.181 94.568, 158.996 103.728, 169.615 115.615 C 173.402 119.854, 179.061 125.939, 182.190 129.139 L 187.880 134.955 183.690 136.032 C 149.226 144.889, 116.425 163.120, 91.130 187.477 C 67.486 210.244, 52.018 238.676, 45.282 271.752 C 42.541 285.212, 42.842 317.867, 45.836 331.773 C 53.464 367.207, 69.717 396.937, 95.438 422.509 C 126.952 453.840, 168.149 474.579, 215.963 483.183 C 232.337 486.129, 268.546 486.843, 286 484.563 C 378.052 472.538, 448.696 412.988, 466.217 332.648 C 468.126 323.892, 468.430 319.482, 468.430 300.500 C 468.430 281.494, 468.128 277.114, 466.209 268.312 C 459.537 237.713, 445.875 212.896, 423.028 189.877 C 401.783 168.471, 384.115 157.082, 350 142.801 C 347.725 141.849, 348.176 141.592, 355 139.950 C 363.035 138.016, 376.454 133.077, 387 128.172 L 393.500 125.148 383.474 125.074 C 362.682 124.920, 347.277 121.675, 331 114.020 C 323.050 110.281, 318.664 108.858, 312.939 108.161 C 302.268 106.862, 288.665 108.363, 273.543 112.507 C 266.477 114.444, 260.522 115.855, 260.310 115.644 C 259.501 114.834, 263.213 93.488, 265.589 85.289 C 270.391 68.718, 279.467 52.758, 287.876 46.098 C 292.965 42.068, 299.688 39.050, 303.639 39.022 C 305.366 39.010, 307.832 38.147, 309.119 37.105 C 311.132 35.475, 311.320 34.809, 310.460 32.355 C 309.558 29.776, 308.979 29.480, 304.481 29.294 C 301.741 29.181, 297.700 29.668, 295.500 30.376" stroke="none" fill="black" fill-rule="evenodd"/>
</svg>